<svg xmlns="http://www.w3.org/2000/svg" width="36" height="36" viewBox="0 0 36 36">
    <g fill="none" fill-rule="evenodd">
        <g>
            <g>
                <g>
                    <g transform="translate(-415 -288) translate(19 181) translate(32 107) translate(364)">
                        <circle cx="18" cy="18" r="18" fill="#C6CBD3"/>
                        <g fill="#FFF">
                            <path d="M3 10c1.105 0 2 .895 2 2s-.895 2-2 2-2-.895-2-2 .895-2 2-2zm9 0c1.105 0 2 .895 2 2s-.895 2-2 2-2-.895-2-2 .895-2 2-2zm9 0c1.105 0 2 .895 2 2s-.895 2-2 2-2-.895-2-2 .895-2 2-2z" transform="translate(6 6)"/>
                        </g>
                    </g>
                </g>
            </g>
        </g>
    </g>
</svg>
